<?xml version="1.0" encoding="utf-8"?>
<svg width="9.899" height="16.9" viewBox="0 0 9.899 16.9" fill="none" xmlns="http://www.w3.org/2000/svg">
  <g transform="translate(1.414 1.414)">
    <g transform="matrix(0.707 0.707 -0.707 0.707 0 0)">
      <path d="M0 0L10 0" />
      <path d="M11 0L1 0Q0.901508 0 0.80491 0.0192147Q0.708311 0.0384294 0.617316 0.0761205Q0.526322 0.113811 0.44443 0.16853Q0.362537 0.223249 0.292893 0.292893Q0.223249 0.362537 0.16853 0.44443Q0.113811 0.526322 0.0761205 0.617316Q0.0384294 0.708311 0.0192147 0.80491Q0 0.901509 0 1Q0 1.09849 0.0192147 1.19509Q0.0384294 1.29169 0.0761205 1.38268Q0.113811 1.47368 0.16853 1.55557Q0.223249 1.63746 0.292893 1.70711Q0.362537 1.77675 0.44443 1.83147Q0.526322 1.88619 0.617316 1.92388Q0.708311 1.96157 0.80491 1.98079Q0.901508 2 1 2L11 2Q11.0985 2 11.1951 1.98079Q11.2917 1.96157 11.3827 1.92388Q11.4737 1.88619 11.5556 1.83147Q11.6375 1.77675 11.7071 1.70711Q11.7767 1.63746 11.8315 1.55557Q11.8862 1.47368 11.9239 1.38268Q11.9616 1.29169 11.9808 1.19509Q12 1.09849 12 1Q12 0.901509 11.9808 0.80491Q11.9616 0.708311 11.9239 0.617317Q11.8862 0.526322 11.8315 0.44443Q11.7767 0.362537 11.7071 0.292893Q11.6375 0.223249 11.5556 0.168531Q11.4737 0.113812 11.3827 0.0761206Q11.2917 0.0384296 11.1951 0.0192148Q11.0985 4.69644e-08 11 0Z" fill="#224F34" fill-rule="evenodd" />
    </g>
    <g transform="matrix(0.707 -0.707 0.707 0.707 0 14.071)">
      <path d="M0 0L10 0" />
      <path d="M1 0L11 0Q11.0985 0 11.1951 0.0192147Q11.2917 0.0384294 11.3827 0.0761205Q11.4737 0.113811 11.5556 0.16853Q11.6375 0.223249 11.7071 0.292893Q11.7767 0.362537 11.8315 0.44443Q11.8862 0.526322 11.9239 0.617316Q11.9616 0.708311 11.9808 0.80491Q12 0.901509 12 1Q12 1.09849 11.9808 1.19509Q11.9616 1.29169 11.9239 1.38268Q11.8862 1.47368 11.8315 1.55557Q11.7767 1.63746 11.7071 1.70711Q11.6375 1.77675 11.5556 1.83147Q11.4737 1.88619 11.3827 1.92388Q11.2917 1.96157 11.1951 1.98079Q11.0985 2 11 2L1 2Q0.901509 2 0.80491 1.98079Q0.708311 1.96157 0.617316 1.92388Q0.526322 1.88619 0.44443 1.83147Q0.362537 1.77675 0.292893 1.70711Q0.223249 1.63746 0.16853 1.55557Q0.113811 1.47368 0.0761205 1.38268Q0.0384294 1.29169 0.0192147 1.19509Q0 1.09849 0 1Q0 0.801088 0.0761205 0.617316Q0.152241 0.433545 0.292893 0.292892Q0.433545 0.152241 0.617316 0.0761203Q0.801087 0 1 0Z" fill="#224F34" fill-rule="evenodd" />
    </g>
  </g>
</svg>